<svg viewBox="0 0 16 16" fill="none" xmlns="http://www.w3.org/2000/svg">
<g id="IconCircleQuestionmark">
<path id="Vector" d="M8 14.1667C11.4057 14.1667 14.1667 11.4057 14.1667 8C14.1667 4.59425 11.4057 1.83333 8 1.83333C4.59425 1.83333 1.83333 4.59425 1.83333 8C1.83333 11.4057 4.59425 14.1667 8 14.1667Z" stroke="currentColor" stroke-linecap="round" stroke-linejoin="round"/>
<path id="Vector_2" d="M8 10.6667V10.66M8.16667 10.6667C8.16667 10.7587 8.09207 10.8333 8 10.8333C7.90793 10.8333 7.83333 10.7587 7.83333 10.6667C7.83333 10.5746 7.90793 10.5 8 10.5C8.09207 10.5 8.16667 10.5746 8.16667 10.6667Z" stroke="currentColor" stroke-linecap="round" stroke-linejoin="round"/>
<path id="Vector_3" d="M6.5 6.16667C6.5 5.61438 6.94773 5.16667 7.5 5.16667H8.3058C8.96533 5.16667 9.5 5.70133 9.5 6.36088C9.5 6.76013 9.30047 7.13307 8.9682 7.35453L8.59373 7.6042C8.2228 7.85147 8 8.2678 8 8.7136V8.83333" stroke="currentColor" stroke-linecap="round" stroke-linejoin="round"/>
</g>
</svg>
