<svg viewBox="0 0 16 16" fill="none" xmlns="http://www.w3.org/2000/svg">
<g id="IconFolder2">
<path id="Vector" d="M5.81721 2.5H3.83333C2.72877 2.5 1.83333 3.39543 1.83333 4.5V10.8333C1.83333 11.9379 2.72877 12.8333 3.83333 12.8333H12.1667C13.2713 12.8333 14.1667 11.9379 14.1667 10.8333V5.83333C14.1667 4.72877 13.2713 3.83333 12.1667 3.83333H8.8124C8.29147 3.83333 7.79107 3.63007 7.41773 3.26679L7.21193 3.06655C6.83853 2.70327 6.33815 2.5 5.81721 2.5Z" stroke="currentColor" stroke-linecap="round" stroke-linejoin="round"/>
<path id="Vector_2" d="M14.1667 8.5C14.1667 7.3954 13.2713 6.5 12.1667 6.5H3.83333C2.72877 6.5 1.83333 7.3954 1.83333 8.5" stroke="currentColor" stroke-linecap="round" stroke-linejoin="round"/>
</g>
</svg>
