<svg viewBox="0 0 16 16" fill="none" xmlns="http://www.w3.org/2000/svg">
<g id="IconFormSquare">
<g id="Vector">
<path d="M11.5 2H4.5C3.11929 2 2 3.11929 2 4.5V11.5C2 12.8807 3.11929 14 4.5 14H11.5C12.8807 14 14 12.8807 14 11.5V4.5C14 3.11929 12.8807 2 11.5 2Z" fill="currentColor"/>
<path d="M4.5 2.16699H11.5C12.7887 2.16699 13.833 3.21134 13.833 4.5V11.5C13.833 12.7887 12.7887 13.833 11.5 13.833H4.5C3.21134 13.833 2.16699 12.7887 2.16699 11.5V4.5C2.16699 3.21134 3.21134 2.16699 4.5 2.16699Z" stroke="currentColor" stroke-opacity="0.12" stroke-width="0.333333"/>
</g>
</g>
</svg>
