<svg viewBox="0 0 16 16" fill="none" xmlns="http://www.w3.org/2000/svg">
<g id="IconHorizontalAlignmentBottom">
<path id="Vector" d="M5.66667 2C4.74619 2 4 2.74619 4 3.66667V10.3333C4 11.2538 4.74619 12 5.66667 12C6.58714 12 7.33333 11.2538 7.33333 10.3333V3.66667C7.33333 2.74619 6.58714 2 5.66667 2Z" fill="currentColor"/>
<path id="Vector_2" d="M10.3333 4.66667C9.41287 4.66667 8.66667 5.41286 8.66667 6.33333V10.3333C8.66667 11.2538 9.41287 12 10.3333 12C11.2538 12 12 11.2538 12 10.3333V6.33333C12 5.41286 11.2538 4.66667 10.3333 4.66667Z" fill="currentColor"/>
<path id="Vector_3" d="M2.5 13C2.22386 13 2 13.2239 2 13.5C2 13.7761 2.22386 14 2.5 14H13.5C13.7761 14 14 13.7761 14 13.5C14 13.2239 13.7761 13 13.5 13H2.5Z" fill="currentColor"/>
</g>
</svg>
