<svg viewBox="0 0 16 16" fill="none" xmlns="http://www.w3.org/2000/svg">
<g id="IconHorizontalAlignmentCenter">
<path id="Vector" d="M7.33333 4.33333V7.5H8.66667V5.66667C8.66667 4.74619 9.41287 4 10.3333 4C11.2538 4 12 4.74619 12 5.66667V7.5H13.5C13.7761 7.5 14 7.72387 14 8C14 8.27613 13.7761 8.5 13.5 8.5H12V10.3333C12 11.2538 11.2538 12 10.3333 12C9.41287 12 8.66667 11.2538 8.66667 10.3333V8.5H7.33333V12C7.33333 12.9205 6.58714 13.6667 5.66667 13.6667C4.74619 13.6667 4 12.9205 4 12V8.5H2.5C2.22386 8.5 2 8.27613 2 8C2 7.72387 2.22386 7.5 2.5 7.5H4V4.33333C4 3.41286 4.74619 2.66667 5.66667 2.66667C6.58714 2.66667 7.33333 3.41286 7.33333 4.33333Z" fill="currentColor"/>
</g>
</svg>
