<svg viewBox="0 0 16 16" fill="none" xmlns="http://www.w3.org/2000/svg">
<g id="IconHorizontalAlignmentTop">
<path id="Vector" d="M2.5 2C2.22386 2 2 2.22386 2 2.5C2 2.77614 2.22386 3 2.5 3H13.5C13.7761 3 14 2.77614 14 2.5C14 2.22386 13.7761 2 13.5 2H2.5Z" fill="currentColor"/>
<path id="Vector_2" d="M5.66667 4C4.74619 4 4 4.74619 4 5.66667V12.3333C4 13.2538 4.74619 14 5.66667 14C6.58714 14 7.33333 13.2538 7.33333 12.3333V5.66667C7.33333 4.74619 6.58714 4 5.66667 4Z" fill="currentColor"/>
<path id="Vector_3" d="M10.3333 4C9.41287 4 8.66667 4.74619 8.66667 5.66667V9.66667C8.66667 10.5871 9.41287 11.3333 10.3333 11.3333C11.2538 11.3333 12 10.5871 12 9.66667V5.66667C12 4.74619 11.2538 4 10.3333 4Z" fill="currentColor"/>
</g>
</svg>
