<svg viewBox="0 0 16 16" fill="none" xmlns="http://www.w3.org/2000/svg">
<g id="IconLayoutAlignLeft">
<path id="Vector" d="M4.66667 10.8333C4.66667 11.1095 4.89053 11.3333 5.16667 11.3333C5.44281 11.3333 5.66667 11.1095 5.66667 10.8333H4.66667ZM5.66667 5.16667C5.66667 4.89053 5.44281 4.66667 5.16667 4.66667C4.89053 4.66667 4.66667 4.89053 4.66667 5.16667H5.66667ZM13 5.7V10.3H14V5.7H13ZM10.3 13H5.7V14H10.3V13ZM3 10.3V5.7H2V10.3H3ZM5.7 3H10.3V2H5.7V3ZM5.7 13C5.1317 13 4.73554 12.9996 4.42712 12.9744C4.12453 12.9497 3.95069 12.9036 3.81901 12.8365L3.36503 13.7275C3.66117 13.8784 3.98126 13.9413 4.34569 13.9711C4.70427 14.0004 5.1482 14 5.7 14V13ZM2 10.3C2 10.8518 1.99961 11.2957 2.02891 11.6543C2.05869 12.0187 2.12159 12.3388 2.27249 12.635L3.16349 12.181C3.0964 12.0493 3.05031 11.8755 3.02559 11.5729C3.00039 11.2645 3 10.8683 3 10.3H2ZM3.81901 12.8365C3.53677 12.6927 3.3073 12.4632 3.16349 12.181L2.27249 12.635C2.51217 13.1054 2.89462 13.4878 3.36503 13.7275L3.81901 12.8365ZM13 10.3C13 10.8683 12.9996 11.2645 12.9744 11.5729C12.9497 11.8755 12.9036 12.0493 12.8365 12.181L13.7275 12.635C13.8784 12.3388 13.9413 12.0187 13.9711 11.6543C14.0004 11.2957 14 10.8518 14 10.3H13ZM10.3 14C10.8518 14 11.2957 14.0004 11.6543 13.9711C12.0187 13.9413 12.3388 13.8784 12.635 13.7275L12.181 12.8365C12.0493 12.9036 11.8755 12.9497 11.5729 12.9744C11.2645 12.9996 10.8683 13 10.3 13V14ZM12.8365 12.181C12.6927 12.4632 12.4632 12.6927 12.181 12.8365L12.635 13.7275C13.1054 13.4878 13.4879 13.1054 13.7275 12.635L12.8365 12.181ZM14 5.7C14 5.1482 14.0004 4.70427 13.9711 4.34569C13.9413 3.98126 13.8784 3.66117 13.7275 3.36503L12.8365 3.81901C12.9036 3.95069 12.9497 4.12453 12.9744 4.42712C12.9996 4.73554 13 5.1317 13 5.7H14ZM10.3 3C10.8683 3 11.2645 3.00039 11.5729 3.02559C11.8755 3.05031 12.0493 3.0964 12.181 3.16349L12.635 2.27249C12.3388 2.12159 12.0187 2.05869 11.6543 2.02891C11.2957 1.99961 10.8518 2 10.3 2V3ZM13.7275 3.36503C13.4879 2.89462 13.1054 2.51217 12.635 2.27249L12.181 3.16349C12.4632 3.3073 12.6927 3.53677 12.8365 3.81901L13.7275 3.36503ZM3 5.7C3 5.1317 3.00039 4.73554 3.02559 4.42712C3.05031 4.12453 3.0964 3.95069 3.16349 3.81901L2.27249 3.36503C2.12159 3.66117 2.05869 3.98126 2.02891 4.34569C1.99961 4.70427 2 5.1482 2 5.7H3ZM5.7 2C5.1482 2 4.70427 1.99961 4.34569 2.02891C3.98126 2.05869 3.66117 2.12159 3.36503 2.27249L3.81901 3.16349C3.95069 3.0964 4.12453 3.05031 4.42712 3.02559C4.73554 3.00039 5.1317 3 5.7 3V2ZM3.16349 3.81901C3.3073 3.53677 3.53677 3.3073 3.81901 3.16349L3.36503 2.27249C2.89462 2.51217 2.51217 2.89462 2.27249 3.36503L3.16349 3.81901ZM5.66667 10.8333V5.16667H4.66667V10.8333H5.66667Z" fill="currentColor"/>
</g>
</svg>
