<svg viewBox="0 0 24 24" fill="none" xmlns="http://www.w3.org/2000/svg">
<g id="IconLinear">
<path id="Vector" d="M2.24532 14.3041C2.20082 14.1144 2.42682 13.9949 2.5646 14.1327L9.86708 21.4351C10.0048 21.5729 9.88538 21.7989 9.69568 21.7544C6.01054 20.8899 3.1098 17.9892 2.24532 14.3041ZM2.00062 11.3773C1.99709 11.434 2.01839 11.4893 2.05853 11.5294L12.4703 21.9412C12.5104 21.9813 12.5657 22.0027 12.6224 21.9991C13.0962 21.9696 13.5611 21.9071 14.0149 21.8139C14.1678 21.7825 14.2209 21.5947 14.1105 21.4843L2.51543 9.88921C2.40506 9.77883 2.2172 9.83195 2.1858 9.98485C2.09261 10.4386 2.03013 10.9035 2.00062 11.3773ZM2.84243 7.94059C2.80913 8.01535 2.82609 8.10271 2.88396 8.16059L15.8391 21.1158C15.897 21.1737 15.9844 21.1906 16.0591 21.1573C16.4163 20.9982 16.7625 20.8188 17.0962 20.6205C17.2066 20.5549 17.2237 20.4032 17.1329 20.3124L3.68737 6.86685C3.59655 6.77603 3.44483 6.79307 3.37922 6.90349C3.18096 7.23717 3.00154 7.58337 2.84243 7.94059ZM4.53198 5.61431C4.45796 5.54029 4.45338 5.42157 4.52312 5.34349C6.35614 3.29137 9.02252 1.99951 11.9906 1.99951C17.5187 1.99951 22.0002 6.48097 22.0002 12.0091C22.0002 14.9772 20.7083 17.6436 18.6562 19.4766C18.5782 19.5464 18.4594 19.5418 18.3854 19.4678L4.53198 5.61431Z" fill="currentColor"/>
</g>
</svg>
