<svg viewBox="0 0 16 16" fill="none" xmlns="http://www.w3.org/2000/svg">
<g id="IconMagicWand2">
<path id="Vector" fill-rule="evenodd" clip-rule="evenodd" d="M11.3133 2.31312C11.9687 1.65762 13.0315 1.65762 13.687 2.31312C14.3425 2.96862 14.3425 4.03139 13.687 4.68689L4.68701 13.6869C4.03151 14.3424 2.96874 14.3424 2.31324 13.6869C1.65774 13.0314 1.65774 11.9686 2.31324 11.3131L11.3133 2.31312ZM12.9799 3.02022C12.7149 2.75525 12.2853 2.75525 12.0203 3.02022L10.2072 4.83334L11.1668 5.7929L12.9799 3.97978C13.2449 3.71481 13.2449 3.2852 12.9799 3.02022ZM10.4597 6.5L9.50013 5.54044L3.02035 12.0202C2.75537 12.2852 2.75537 12.7148 3.02035 12.9798C3.28532 13.2447 3.71493 13.2447 3.97991 12.9798L10.4597 6.5Z" fill="currentColor"/>
<path id="Vector_2" d="M6.56688 1.38303C6.63139 1.35077 6.6837 1.29847 6.71597 1.23396L7.03477 0.59629C7.15763 0.350607 7.50823 0.350607 7.6311 0.59629L7.9499 1.23396C7.98217 1.29847 8.0345 1.35077 8.09897 1.38303L8.73663 1.70186C8.9823 1.82471 8.9823 2.17531 8.73663 2.29815L8.09897 2.61698C8.0345 2.64923 7.98217 2.70155 7.9499 2.76605L7.6311 3.40372C7.50823 3.64941 7.15763 3.64941 7.03477 3.40372L6.71597 2.76605C6.6837 2.70155 6.63139 2.64923 6.56688 2.61698L5.92921 2.29815C5.68353 2.17531 5.68353 1.82471 5.92921 1.70186L6.56688 1.38303Z" fill="currentColor"/>
<path id="Vector_3" d="M12.5669 8.71635C12.6314 8.68415 12.6837 8.63181 12.716 8.56728L13.0348 7.92961C13.1577 7.68394 13.5083 7.68394 13.6311 7.92961L13.9499 8.56728C13.9822 8.63181 14.0345 8.68415 14.099 8.71635L14.7367 9.03521C14.9823 9.15808 14.9823 9.50868 14.7367 9.63148L14.099 9.95034C14.0345 9.98261 13.9822 10.0349 13.9499 10.0994L13.6311 10.7371C13.5083 10.9827 13.1577 10.9827 13.0348 10.7371L12.716 10.0994C12.6837 10.0349 12.6314 9.98261 12.5669 9.95034L11.9293 9.63148C11.6835 9.50868 11.6835 9.15808 11.9293 9.03521L12.5669 8.71635Z" fill="currentColor"/>
<path id="Vector_4" d="M3.23355 4.71636C3.29806 4.68411 3.35037 4.6318 3.38262 4.56729L3.70145 3.92962C3.82429 3.68394 4.17489 3.68394 4.29774 3.92963L4.61657 4.56729C4.64883 4.6318 4.70113 4.68411 4.76564 4.71636L5.40331 5.03519C5.64899 5.15804 5.64899 5.50864 5.40331 5.63148L4.76564 5.95031C4.70113 5.98257 4.64883 6.03488 4.61657 6.09939L4.29774 6.73707C4.17489 6.98273 3.82429 6.98273 3.70145 6.73707L3.38262 6.09939C3.35037 6.03488 3.29806 5.98257 3.23355 5.95031L2.59588 5.63148C2.3502 5.50864 2.3502 5.15804 2.59588 5.03519L3.23355 4.71636Z" fill="currentColor"/>
</g>
</svg>
