<svg viewBox="0 0 20 20" fill="none" xmlns="http://www.w3.org/2000/svg">
<g id="IconMultiMedia">
<path id="Vector" d="M12.7083 7.29167V4.79167C12.7083 3.41096 11.5891 2.29167 10.2083 2.29167H4.79167C3.41096 2.29167 2.29167 3.41096 2.29167 4.79167V10.2083C2.29167 11.5891 3.41096 12.7083 4.79167 12.7083H7.29167M2.58333 9.91667L3.61795 9.23883C4.45607 8.68967 5.54107 8.69408 6.37477 9.24983L6.98238 9.65492M5 5.20833H5.41667M12.0833 12.5002H12.5M5.625 5.20833C5.625 5.43845 5.43845 5.625 5.20833 5.625C4.97822 5.625 4.79167 5.43845 4.79167 5.20833C4.79167 4.97822 4.97822 4.79167 5.20833 4.79167C5.43845 4.79167 5.625 4.97822 5.625 5.20833ZM11.4583 11V14L13.7917 12.5L11.4583 11ZM15.2083 17.7083H9.79167C8.41092 17.7083 7.29167 16.5891 7.29167 15.2083V9.79167C7.29167 8.41092 8.41092 7.29167 9.79167 7.29167H15.2083C16.5891 7.29167 17.7083 8.41092 17.7083 9.79167V15.2083C17.7083 16.5891 16.5891 17.7083 15.2083 17.7083Z" stroke="currentColor" stroke-width="1.25" stroke-linecap="round" stroke-linejoin="round"/>
</g>
</svg>
