<svg viewBox="0 0 16 16" fill="none" xmlns="http://www.w3.org/2000/svg">
<g id="IconPrompt">
<path id="Vector" d="M8.83927 5.98209L8.453 4.97778C8.38093 4.79035 8.2008 4.66667 8 4.66667C7.7992 4.66667 7.61907 4.79035 7.547 4.97778L7.16073 5.98209C6.95227 6.52403 6.52403 6.95227 5.98209 7.16073L4.97778 7.547C4.79035 7.61907 4.66667 7.7992 4.66667 8C4.66667 8.2008 4.79035 8.38093 4.97778 8.453L5.98209 8.83927C6.52403 9.04773 6.95227 9.476 7.16073 10.0179L7.547 11.0222C7.61907 11.2097 7.7992 11.3333 8 11.3333C8.2008 11.3333 8.38093 11.2097 8.453 11.0222L8.83927 10.0179C9.04773 9.476 9.476 9.04773 10.0179 8.83927L11.0222 8.453C11.2097 8.38093 11.3333 8.2008 11.3333 8C11.3333 7.7992 11.2097 7.61907 11.0222 7.547L10.0179 7.16073C9.476 6.95227 9.04773 6.52403 8.83927 5.98209Z" fill="currentColor"/>
<path id="Vector_2" d="M11.5 2.5H4.5C3.39543 2.5 2.5 3.39543 2.5 4.5V11.5C2.5 12.6046 3.39543 13.5 4.5 13.5H11.5C12.6046 13.5 13.5 12.6046 13.5 11.5V4.5C13.5 3.39543 12.6046 2.5 11.5 2.5Z" stroke="currentColor"/>
</g>
</svg>
