<svg viewBox="0 0 16 16" fill="none" xmlns="http://www.w3.org/2000/svg">
<g id="IconRecord">
<path id="Vector" fill-rule="evenodd" clip-rule="evenodd" d="M8 2.33333C4.87039 2.33333 2.33333 4.87039 2.33333 8C2.33333 11.1296 4.87039 13.6667 8 13.6667C11.1296 13.6667 13.6667 11.1296 13.6667 8C13.6667 4.87039 11.1296 2.33333 8 2.33333ZM1.33333 8C1.33333 4.3181 4.3181 1.33333 8 1.33333C11.6819 1.33333 14.6667 4.3181 14.6667 8C14.6667 11.6819 11.6819 14.6667 8 14.6667C4.3181 14.6667 1.33333 11.6819 1.33333 8Z" fill="currentColor"/>
<path id="Vector_2" d="M10.6667 8C10.6667 9.47273 9.47273 10.6667 8 10.6667C6.52724 10.6667 5.33333 9.47273 5.33333 8C5.33333 6.52724 6.52724 5.33333 8 5.33333C9.47273 5.33333 10.6667 6.52724 10.6667 8Z" fill="currentColor"/>
</g>
</svg>
