<svg viewBox="0 0 16 16" fill="none" xmlns="http://www.w3.org/2000/svg">
<g id="IconSquareArrowDown">
<path id="Vector" fill-rule="evenodd" clip-rule="evenodd" d="M2 3.83333C2 2.82081 2.82081 2 3.83333 2H12.1667C13.1792 2 14 2.82081 14 3.83333V12.1667C14 13.1792 13.1792 14 12.1667 14H3.83333C2.82081 14 2 13.1792 2 12.1667V3.83333ZM5.83333 11.3333C5.55719 11.3333 5.33333 11.1095 5.33333 10.8333C5.33333 10.5572 5.55719 10.3333 5.83333 10.3333H10.1667C10.4428 10.3333 10.6667 10.5572 10.6667 10.8333C10.6667 11.1095 10.4428 11.3333 10.1667 11.3333H5.83333ZM9.85353 7.85353L8.35353 9.35353C8.15827 9.5488 7.84173 9.5488 7.64647 9.35353L6.14645 7.85353C5.95119 7.65827 5.95119 7.34173 6.14645 7.14647C6.34171 6.9512 6.65829 6.9512 6.85353 7.14647L7.5 7.79287V5.16667C7.5 4.89053 7.72387 4.66667 8 4.66667C8.27613 4.66667 8.5 4.89053 8.5 5.16667V7.79287L9.14647 7.14647C9.34173 6.9512 9.65827 6.9512 9.85353 7.14647C10.0488 7.34173 10.0488 7.65827 9.85353 7.85353Z" fill="currentColor"/>
</g>
</svg>
