<svg viewBox="0 0 16 16" fill="none" xmlns="http://www.w3.org/2000/svg">
<g id="IconVerticalAlignmentLeft">
<path id="Vector" d="M3 2.5C3 2.22386 2.77614 2 2.5 2C2.22386 2 2 2.22386 2 2.5V13.5C2 13.7761 2.22386 14 2.5 14C2.77614 14 3 13.7761 3 13.5V2.5Z" fill="currentColor"/>
<path id="Vector_2" d="M5.66667 4C4.74619 4 4 4.74619 4 5.66667C4 6.58714 4.74619 7.33333 5.66667 7.33333H12.3333C13.2538 7.33333 14 6.58714 14 5.66667C14 4.74619 13.2538 4 12.3333 4H5.66667Z" fill="currentColor"/>
<path id="Vector_3" d="M5.66667 8.66667C4.74619 8.66667 4 9.41287 4 10.3333C4 11.2538 4.74619 12 5.66667 12H9.66667C10.5871 12 11.3333 11.2538 11.3333 10.3333C11.3333 9.41287 10.5871 8.66667 9.66667 8.66667H5.66667Z" fill="currentColor"/>
</g>
</svg>
