<svg viewBox="0 0 16 16" fill="none" xmlns="http://www.w3.org/2000/svg">
<g id="IconVerticalAlignmentCenter">
<path id="Vector" d="M8.5 2.5C8.5 2.22386 8.27613 2 8 2C7.72387 2 7.5 2.22386 7.5 2.5V4H4.33333C3.41286 4 2.66667 4.74619 2.66667 5.66667C2.66667 6.58714 3.41286 7.33333 4.33333 7.33333H7.5V8.66667H5.66667C4.74619 8.66667 4 9.41287 4 10.3333C4 11.2538 4.74619 12 5.66667 12H7.5V13.5C7.5 13.7761 7.72387 14 8 14C8.27613 14 8.5 13.7761 8.5 13.5V12H10.3333C11.2538 12 12 11.2538 12 10.3333C12 9.41287 11.2538 8.66667 10.3333 8.66667H8.5V7.33333H11.6667C12.5871 7.33333 13.3333 6.58714 13.3333 5.66667C13.3333 4.74619 12.5871 4 11.6667 4H8.5V2.5Z" fill="currentColor"/>
</g>
</svg>
