<svg viewBox="0 0 16 16" fill="none" xmlns="http://www.w3.org/2000/svg">
<g id="IconVerticalAlignmentRight">
<path id="Vector" d="M14 2.5C14 2.22386 13.7761 2 13.5 2C13.2239 2 13 2.22386 13 2.5V13.5C13 13.7761 13.2239 14 13.5 14C13.7761 14 14 13.7761 14 13.5V2.5Z" fill="currentColor"/>
<path id="Vector_2" d="M3.66667 4C2.74619 4 2 4.74619 2 5.66667C2 6.58714 2.74619 7.33333 3.66667 7.33333H10.3333C11.2538 7.33333 12 6.58714 12 5.66667C12 4.74619 11.2538 4 10.3333 4H3.66667Z" fill="currentColor"/>
<path id="Vector_3" d="M6.33333 8.66667C5.41286 8.66667 4.66667 9.41287 4.66667 10.3333C4.66667 11.2538 5.41286 12 6.33333 12H10.3333C11.2538 12 12 11.2538 12 10.3333C12 9.41287 11.2538 8.66667 10.3333 8.66667H6.33333Z" fill="currentColor"/>
</g>
</svg>
