<svg viewBox="0 0 24 24" fill="none" xmlns="http://www.w3.org/2000/svg">
<g id="IconVolumeFull">
<path id="Vector" d="M19.2476 4.75194C21.1025 6.60683 22.2498 9.16933 22.2498 11.9998C22.2498 14.8302 21.1025 17.3927 19.2476 19.2476M15.8889 8.11132C16.8842 9.10662 17.4998 10.4816 17.4998 12.0004C17.4998 13.5192 16.8842 14.8942 15.8889 15.8895M3.74976 7.74999H5.2982C5.75234 7.74999 6.19296 7.59543 6.54759 7.31173L10.6251 4.04974C11.2799 3.52593 12.2498 3.99211 12.2498 4.83061V19.1694C12.2498 20.0079 11.2799 20.474 10.6251 19.9502L6.54759 16.6883C6.19296 16.4045 5.75234 16.25 5.2982 16.25H3.74976C2.64519 16.25 1.74976 15.3546 1.74976 14.25V9.74999C1.74976 8.64542 2.64519 7.74999 3.74976 7.74999Z" stroke="currentColor" stroke-width="1.5" stroke-linecap="round" stroke-linejoin="round"/>
</g>
</svg>
